<svg width="100" height="30" viewBox="0 0 100 30" fill="none" xmlns="http://www.w3.org/2000/svg">
<g clip-path="url(#clip0_1947_260635)">
<path d="M16.7037 14.7405C16.7037 15.8811 16.0289 16.5343 14.9058 16.5343H3.63389C4.08376 19.208 6.07488 20.9695 8.9974 20.9695C10.8919 20.9695 12.3698 20.2198 13.3012 19.1098C13.5895 18.7832 13.9427 18.5886 14.3926 18.5886C15.1957 18.5886 15.7406 19.1436 15.7406 19.9254C15.7406 20.2182 15.644 20.5126 15.4523 20.7732C14.0077 22.5348 11.7267 23.611 8.9974 23.611C3.98713 23.611 0.679688 20.3164 0.679688 15.4259C0.679688 10.5354 3.98713 7.24072 8.83583 7.24072C13.363 7.24072 16.7037 10.5016 16.7037 14.6762V14.7422V14.7405ZM3.69884 13.9909H13.9744C13.4279 11.5119 11.5017 9.88223 8.83583 9.88223C6.16992 9.88223 4.24374 11.5135 3.69725 13.9909H3.69884Z" fill="#000000"/>
<path d="M43.4532 14.1851V21.8812C43.4532 22.8272 42.94 23.4143 42.072 23.4143C41.2039 23.4143 40.659 22.8272 40.659 21.8812V14.5101C40.659 11.4777 39.406 9.87861 37.03 9.87861C34.654 9.87861 33.0478 11.8348 33.0478 15.0313V21.8796C33.0478 22.8255 32.5345 23.4127 31.6348 23.4127C30.8 23.4127 30.2535 22.8255 30.2535 21.8796V14.5085C30.2535 11.4761 29.0006 9.877 26.5929 9.877C24.1851 9.877 22.6106 11.8332 22.6106 15.0297V21.878C22.6106 22.8239 22.0974 23.4111 21.1977 23.4111C20.2979 23.4111 19.8164 22.8239 19.8164 21.878V8.99543C19.8164 8.01733 20.3296 7.43015 21.1977 7.43015C22.0657 7.43015 22.6106 8.01733 22.6106 8.99543V9.38634H22.6756C23.6703 7.98354 25.2765 7.23389 27.236 7.23389C29.5154 7.23389 31.1533 8.17981 32.053 9.94135H32.1179C33.1777 8.21359 35.0088 7.23389 37.5448 7.23389C41.4954 7.23389 43.4532 9.64696 43.4532 14.1803V14.1851Z" fill="#000000"/>
<path d="M62.1123 14.5121V21.8832C62.1123 22.8292 61.5658 23.4164 60.6993 23.4164C59.8329 23.4164 59.3181 22.8292 59.3181 21.8832V14.8065C59.3181 11.5778 57.7768 9.88223 54.8226 9.88223C51.8684 9.88223 49.9739 11.9687 49.9739 15.3937V21.8832C49.9739 22.8292 49.4607 23.4164 48.561 23.4164C47.6612 23.4164 47.1797 22.8292 47.1797 21.8832V8.96849C47.1797 8.02256 47.6929 7.43538 48.561 7.43538C49.429 7.43538 49.9739 8.02256 49.9739 8.96849V9.75193H50.0389C51.1952 8.15448 53.058 7.24072 55.4974 7.24072C59.8012 7.24072 62.1123 9.7841 62.1123 14.5137V14.5121Z" fill="#000000"/>
<path d="M65.4844 3.25465C65.4844 2.2106 66.1592 1.46094 67.2189 1.46094C68.2786 1.46094 68.9851 2.2106 68.9851 3.25465C68.9851 4.29871 68.3103 5.04837 67.2189 5.04837C66.1275 5.04837 65.4844 4.29871 65.4844 3.25465ZM68.6318 9.00098V21.8836C68.6318 22.8295 68.1186 23.4167 67.2189 23.4167C66.3192 23.4167 65.8376 22.8295 65.8376 21.8836V9.00098C65.8376 8.02288 66.3508 7.43571 67.2189 7.43571C68.0869 7.43571 68.6318 8.02288 68.6318 9.00098Z" fill="#000000"/>
<path d="M75.5325 6.09863V7.63174H77.9592C78.8257 7.63174 79.3722 8.15297 79.3722 8.96858C79.3722 9.7842 78.8257 10.2732 77.9592 10.2732H75.5325V21.8833C75.5325 22.8293 75.0193 23.4164 74.1196 23.4164C73.2198 23.4164 72.7383 22.8293 72.7383 21.8833V6.19677C72.7383 2.31655 74.8894 0 78.5501 0C80.9594 0 82.7889 0.978096 83.7203 2.70746C83.8486 2.96808 83.9136 3.19651 83.9136 3.49091C83.9136 4.30653 83.3671 4.82775 82.6289 4.82775C82.1474 4.82775 81.7292 4.59931 81.5043 4.20839C80.9578 3.29464 80.0264 2.64312 78.7101 2.64312C76.7189 2.64312 75.5309 3.91561 75.5309 6.10024L75.5325 6.09863Z" fill="#000000"/>
<path d="M96.509 9.32344V22.2704C96.509 27.0965 93.5865 30.0002 88.8012 30.0002C85.9436 30.0002 83.5992 29.1846 82.3146 27.489C82.1546 27.2606 82.0247 26.934 82.0247 26.5753C82.0247 25.7919 82.5712 25.2063 83.406 25.2063C83.8558 25.2063 84.1125 25.3688 84.434 25.6953C85.4937 26.7716 86.8417 27.3587 88.7378 27.3587C91.8536 27.3587 93.7148 25.4669 93.7148 22.4023V21.1941H93.6499C92.4935 22.7916 90.9475 23.5445 88.5398 23.5445C84.301 23.5445 81.9883 21.0011 81.9883 16.2715V9.32505C81.9883 8.34695 82.5348 7.75977 83.4012 7.75977C84.2677 7.75977 84.7825 8.34695 84.7825 9.32505V15.9787C84.7825 19.2074 86.3238 20.8804 89.2146 20.903C91.8267 20.9239 93.7275 18.1891 93.7148 15.8741C93.699 12.8803 93.7148 9.32505 93.7148 9.32505C93.7148 8.34695 94.2613 7.75977 95.0961 7.75977C95.9958 7.75977 96.509 8.34695 96.509 9.32505V9.32344Z" fill="#000000"/>
</g>
<defs>
<clipPath id="clip0_1947_260635">
<rect width="100" height="30" fill="white"/>
</clipPath>
</defs>
</svg>
